<svg xmlns="http://www.w3.org/2000/svg" version="1.1" xmlns:xlink="http://www.w3.org/1999/xlink" width="512" height="512" x="0" y="0" viewBox="0 0 512 512" style="enable-background:new 0 0 512 512" xml:space="preserve" class=""><g><path d="M385.373 384H368a40.253 40.253 0 0 1-24-8l-34.867-26.15a9.709 9.709 0 0 1-1.04-14.63 9.732 9.732 0 0 1 11.68-1.564l34.783 19.876a22.289 22.289 0 0 0 29.602-31.716l-5.864-8.796 19.867-19.867 35.562 55.883 56.62 56.62 11.314-11.313-55.38-55.38L440 329.1v-77.785l25.657-25.657A24.978 24.978 0 0 0 440 184.339V40a24.027 24.027 0 0 0-24-24H96a24.027 24.027 0 0 0-24 24v156l-16 12a40.192 40.192 0 0 0-16 32v256h16V240a24.116 24.116 0 0 1 9.6-19.2L72 216v107.294a16 16 0 0 0 27.844 10.757L119.874 312H120v-.14l33.78-37.19a11.723 11.723 0 0 1 15.774-1.505l.408.306a12.418 12.418 0 0 1 4.945 8.565 12.248 12.248 0 0 1-2.788 9.346 57954.296 57954.296 0 0 0-22.557 27.048A24.036 24.036 0 0 0 144 333.793v3.58a46.32 46.32 0 0 1-13.656 32.97A62.216 62.216 0 0 0 112 414.627V496h16v-16h288a24.027 24.027 0 0 0 24-24v-4.686l50.343 50.343 11.314-11.314-99.313-99.313a23.844 23.844 0 0 0-16.971-7.03Zm-85.84-21.35 3.716 2.787L268.687 400H256v-12.686l35.263-35.263a25.69 25.69 0 0 0 8.27 10.599Zm-14.637-37.348 22.508-56.273a7.962 7.962 0 0 1 7.429-5.029h41.853l-69.965 69.965a8.05 8.05 0 0 1-1.825-8.663Zm40.012-6.896L416 227.314 428.686 240l-87.477 87.477-13.498-7.713a25.571 25.571 0 0 0-2.803-1.358Zm45.938 12.285a6.289 6.289 0 0 1-8.353 8.949l-6.885-3.934 11.149-11.149ZM424 303.957l-14.25-22.393 14.25-14.25Zm24-104.928a8.97 8.97 0 0 1 6.343 15.314L440 228.686 427.314 216l14.343-14.343a8.91 8.91 0 0 1 6.343-2.628ZM88 323.285V40a8.01 8.01 0 0 1 8-8h320a8.01 8.01 0 0 1 8 8v156.686l-16 16V48H104v257.672Zm72 10.508a8.004 8.004 0 0 1 1.853-5.118c4.686-5.623 13.051-15.657 20.576-24.675H200a8.01 8.01 0 0 1 8 8v32a8.01 8.01 0 0 1-8 8h-32a8.01 8.01 0 0 1-8-8v-10.207Zm-18.344 47.864a62.64 62.64 0 0 0 12.59-18.007A23.858 23.858 0 0 0 168 368h32a24.027 24.027 0 0 0 24-24v-32a24.027 24.027 0 0 0-24-24h-9.365a28.54 28.54 0 0 0 .165-7.815A28.193 28.193 0 0 0 183.28 264H200a24.027 24.027 0 0 0 24-24v-16h-16v16a8.01 8.01 0 0 1-8 8h-32a8.01 8.01 0 0 1-8-8v-32a8.01 8.01 0 0 1 8-8h16v-16h-16a24.027 24.027 0 0 0-24 24v32a23.925 23.925 0 0 0 7.246 17.161 27.876 27.876 0 0 0-9.31 6.751L120 288.06V64h272v164.686l-20.942 20.942A55.792 55.792 0 0 0 357.65 248h-42.817a23.886 23.886 0 0 0-22.284 15.086L270.04 319.36c-.085.212-.143.428-.221.641H248v16h21.678a24.22 24.22 0 0 0 5.749 9.26L240 380.685V416h35.313l40.866-40.866L334.4 388.8A56.348 56.348 0 0 0 368 400h17.373a7.945 7.945 0 0 1 5.656 2.343l.97.971V432H128v-17.373a46.32 46.32 0 0 1 13.656-32.97ZM424 456a8.01 8.01 0 0 1-8 8H128v-16h280v-28.686l16 16Z" fill="#e50027" opacity="1" data-original="#000000" class=""></path><path d="M224 120h-16v16a8.01 8.01 0 0 1-8 8h-32a8.01 8.01 0 0 1-8-8v-32a8.01 8.01 0 0 1 8-8h16V80h-16a24.027 24.027 0 0 0-24 24v32a24.027 24.027 0 0 0 24 24h32a24.027 24.027 0 0 0 24-24Z" fill="#e50027" opacity="1" data-original="#000000" class=""></path><path d="m170.343 122.343 40-40 11.314 11.313-40 40zM248 80h120v16H248zM170.344 226.344l39.999-40.002 11.314 11.313-39.999 40.002zM248 216h80v16h-80zM248 112h96v16h-96zM248 184h120v16H248z" fill="#e50027" opacity="1" data-original="#000000" class=""></path></g></svg>