<svg xmlns="http://www.w3.org/2000/svg" version="1.1" xmlns:xlink="http://www.w3.org/1999/xlink" width="512" height="512" x="0" y="0" viewBox="0 0 100 100" style="enable-background:new 0 0 512 512" xml:space="preserve" class=""><g><path d="M59.817 47.784a7.59 7.59 0 0 0-1.033-1.969c-1.219-1.657-3.645-4.579-6.274-5.649l-2.141-1.295a2.296 2.296 0 0 1-.947-1.099c-.56-1.33-1.488-3.796-1.734-6.014l7.472-5.668c1.649-1.245 2-3.629.772-5.324a3.821 3.821 0 0 0-3.092-1.559c-.82 0-1.643.278-2.323.788l-9.578 7.311a4.006 4.006 0 0 0-1.521 3.839c.663 3.991 1.6 9.286 2.384 12.439a16.84 16.84 0 0 0-.464.596c-1.995 2.604-6.866 9.936-8.996 21.75l-3.725 19.276a4.013 4.013 0 0 0 .301 2.472 4.02 4.02 0 0 0 3.152 2.311l.205.022a4.022 4.022 0 0 0 4.461-3.089l4.183-17.964 2.75 18.604a3.998 3.998 0 0 0 1.633 2.69 4.002 4.002 0 0 0 2.35.762c.238 0 .479-.021.721-.063a4.037 4.037 0 0 0 3.342-3.986c0-.129-.011-.258-.021-.367a.97.97 0 0 0-.008-.121L49.165 65.89c.965.63 2.233.822 3.439.38l8.938-3.292a3.482 3.482 0 0 0 2.088-4.446zM60.855 61.1l-.006.002-8.938 3.292a1.849 1.849 0 0 1-2.408-1.154 1.852 1.852 0 0 1 1.11-2.316l6.995-2.655a.999.999 0 0 0 .561-1.336l-2.785-6.358a1.002 1.002 0 0 0-1.696-.224l-6.526 8.144a2.99 2.99 0 0 0-.648 2.221l3.177 25.918c0 .03.004.088.007.118.007.076.015.146.015.216 0 .997-.71 1.845-1.69 2.017a2.035 2.035 0 0 1-2.376-1.71l-3.52-23.813a1 1 0 0 0-.948-.853l-.041-.001a1 1 0 0 0-.974.773L34.788 86.47a2.034 2.034 0 0 1-2.252 1.559.9.9 0 0 0-.082-.007l-.148-.017a2.016 2.016 0 0 1-1.573-1.164 1.997 1.997 0 0 1-.153-1.249L34.308 66.3c2.055-11.396 6.711-18.413 8.625-20.91.419-.561.681-.849.7-.87.231-.251.319-.604.232-.934-.789-2.991-1.781-8.594-2.475-12.767a2.012 2.012 0 0 1 .765-1.923l9.568-7.304c.834-.621 2.017-.422 2.597.358.585.81.422 1.951-.367 2.547l-7.913 6.002a.998.998 0 0 0-.394.857c.16 2.638 1.279 5.639 1.93 7.185a4.275 4.275 0 0 0 1.757 2.041l2.213 1.339c.049.029.1.055.153.076 1.602.626 3.597 2.45 5.473 5.002.322.441.577.928.761 1.45l3.813 10.758a1.483 1.483 0 0 1-.891 1.893zm-12.167-1.31.031-.04 5.498-6.86 1.7 3.882-6.01 2.281a3.86 3.86 0 0 0-1.219.737zM92.557 32.909a6.73 6.73 0 0 0-.89-1.678c-1.249-1.7-3.174-3.892-5.29-4.753l-1.773-1.085a1.738 1.738 0 0 1-.713-.825c-.456-1.078-1.207-3.064-1.421-4.88l6.146-4.664c1.455-1.104 1.759-3.195.679-4.658a3.335 3.335 0 0 0-2.719-1.382c-.731 0-1.454.246-2.032.692l-7.972 6.095a3.492 3.492 0 0 0-1.346 3.371c.213 1.268.608 3.626 1.041 5.869.218 1.096.435 2.169.645 3.153.106.454.207.882.303 1.273-1.369 1.679-5.958 7.959-7.878 18.626l-3.11 16.078c-.18.949.042 1.944.609 2.729a3.51 3.51 0 0 0 2.4 1.438l.153.021a3.522 3.522 0 0 0 3.932-2.695l3.288-14.123 2.166 14.634a3.506 3.506 0 0 0 1.429 2.358 3.514 3.514 0 0 0 2.69.62 3.532 3.532 0 0 0 2.906-3.257c.016-.102.016-.183.016-.232 0-.133-.011-.253-.029-.436L83.725 48.38c.79.409 1.74.517 2.722.165l7.448-2.742.004-.002c1.584-.591 2.405-2.356 1.834-3.926zm.644 11.018-7.438 2.738c-.862.308-1.563-.151-1.802-.862a1.38 1.38 0 0 1 .82-1.721l5.841-2.224a.997.997 0 0 0 .559-1.338l-2.332-5.289a.998.998 0 0 0-1.695-.222l-5.45 6.8a2.728 2.728 0 0 0-.559 1.968L83.8 65.45c.005.052.012.101.013.161a.893.893 0 0 0-.009.104 1.525 1.525 0 0 1-1.257 1.438 1.514 1.514 0 0 1-1.174-.27 1.522 1.522 0 0 1-.622-1.028l-2.937-19.842a1 1 0 0 0-.948-.853l-.041-.001a1 1 0 0 0-.974.773l-4.479 19.244a1.533 1.533 0 0 1-1.713 1.171l-.159-.02a1.528 1.528 0 0 1-1.044-.626 1.529 1.529 0 0 1-.267-1.184l3.112-16.087c1.84-10.219 6.18-16.157 7.479-17.751.153-.196.25-.305.262-.317.228-.249.314-.595.232-.922a88.773 88.773 0 0 1-.413-1.712c-.204-.956-.419-2.02-.633-3.101-.427-2.215-.82-4.558-1.031-5.813a1.5 1.5 0 0 1 .582-1.45l7.98-6.102c.586-.45 1.482-.312 1.921.287a1.358 1.358 0 0 1-.275 1.881l-6.585 4.998a.998.998 0 0 0-.394.854c.128 2.244 1.07 4.764 1.62 6.062a3.712 3.712 0 0 0 1.522 1.762l1.836 1.123c.051.03.104.057.159.078 1.792.697 3.582 2.873 4.488 4.104.263.361.466.746.62 1.171l3.177 8.968a1.083 1.083 0 0 1-.647 1.377zm-9.318-1.636 3.803-4.745 1.242 2.818-4.858 1.85c-.064.023-.127.05-.187.077z" fill="#ffffff" opacity="1" data-original="#000000" class=""></path><path d="M60.278 27.949c-3.671 0-6.657 2.987-6.657 6.658s2.986 6.657 6.657 6.657 6.658-2.986 6.658-6.657-2.987-6.658-6.658-6.658zm0 11.316c-2.568 0-4.657-2.089-4.657-4.657s2.089-4.658 4.657-4.658 4.658 2.09 4.658 4.658-2.089 4.657-4.658 4.657zM92.784 16.276c-3.151 0-5.715 2.563-5.715 5.715s2.563 5.716 5.715 5.716 5.716-2.564 5.716-5.716-2.564-5.715-5.716-5.715zm0 9.431c-2.049 0-3.715-1.667-3.715-3.716s1.666-3.715 3.715-3.715 3.716 1.666 3.716 3.715-1.667 3.716-3.716 3.716zM21.782 48.545l7.448-2.742.004-.002c1.584-.592 2.406-2.356 1.835-3.926l-3.176-8.966a6.714 6.714 0 0 0-.891-1.678c-1.249-1.7-3.174-3.893-5.29-4.753l-1.773-1.085a1.74 1.74 0 0 1-.713-.824c-.456-1.081-1.207-3.07-1.421-4.881l6.146-4.664c1.456-1.104 1.759-3.195.679-4.657a3.332 3.332 0 0 0-2.72-1.383c-.731 0-1.454.246-2.032.692l-7.972 6.095a3.45 3.45 0 0 0-1.336 3.362 201.34 201.34 0 0 0 .958 5.441c.012.068.024.137.028.145.343 1.849.689 3.496.989 4.715-.141.174-.318.401-.526.68-1.628 2.185-5.604 8.307-7.349 17.95L1.562 64.142a3.55 3.55 0 0 0 .607 2.729 3.507 3.507 0 0 0 2.402 1.438l.152.021a3.532 3.532 0 0 0 3.933-2.695l3.287-14.123 2.166 14.634a3.508 3.508 0 0 0 1.429 2.358 3.51 3.51 0 0 0 2.694.619c1.402-.251 2.509-1.306 2.803-2.624.076-.263.115-.553.115-.864 0-.133-.011-.253-.029-.436l-2.062-16.82a3.356 3.356 0 0 0 2.723.166zm-2.484-2.742a1.38 1.38 0 0 1 .82-1.721l5.841-2.224a.997.997 0 0 0 .559-1.338l-2.332-5.289a.998.998 0 0 0-1.695-.222l-5.447 6.799a2.723 2.723 0 0 0-.562 1.969l2.655 21.673c.006.062.014.12.014.185a1.3 1.3 0 0 1-.051.364 1.515 1.515 0 0 1-1.217 1.155 1.537 1.537 0 0 1-1.173-.271 1.527 1.527 0 0 1-.622-1.028l-2.937-19.842a1 1 0 0 0-.948-.853l-.041-.001a1 1 0 0 0-.974.773L6.711 65.177a1.526 1.526 0 0 1-1.714 1.172l-.16-.021a1.53 1.53 0 0 1-1.045-.626 1.528 1.528 0 0 1-.266-1.184l3.111-16.086c1.671-9.237 5.442-15.051 6.986-17.122.455-.611.741-.932.76-.951.226-.251.312-.6.226-.926-.313-1.194-.695-2.983-1.077-5.038-.003-.034-.002-.07-.002-.105a.928.928 0 0 0-.088-.367 205.3 205.3 0 0 1-.899-5.119 1.47 1.47 0 0 1 .573-1.439l7.98-6.102c.587-.45 1.484-.314 1.922.288a1.357 1.357 0 0 1-.275 1.88l-6.586 4.998a.998.998 0 0 0-.394.854c.128 2.238 1.07 4.76 1.62 6.062a3.696 3.696 0 0 0 1.522 1.761l1.835 1.123c.052.031.104.058.16.08 1.792.695 3.582 2.872 4.488 4.104.264.36.467.745.621 1.17l3.177 8.968a1.086 1.086 0 0 1-.65 1.376l-7.438 2.738c-.846.305-1.566-.161-1.8-.862zm-.078-3.512 3.802-4.745 1.242 2.818-4.858 1.85a2.79 2.79 0 0 0-.186.077z" fill="#ffffff" opacity="1" data-original="#000000" class=""></path><path d="M22.405 21.991c0 3.151 2.564 5.716 5.716 5.716s5.716-2.564 5.716-5.716-2.564-5.715-5.716-5.715-5.716 2.564-5.716 5.715zm5.716-3.715c2.049 0 3.716 1.666 3.716 3.715s-1.667 3.716-3.716 3.716-3.716-1.667-3.716-3.716 1.667-3.715 3.716-3.715z" fill="#ffffff" opacity="1" data-original="#000000" class=""></path></g></svg>