<svg xmlns="http://www.w3.org/2000/svg" version="1.1" xmlns:xlink="http://www.w3.org/1999/xlink" width="512" height="512" x="0" y="0" viewBox="0 0 128 128" style="enable-background:new 0 0 512 512" xml:space="preserve" class=""><g><path d="M71.993 15.2V10a7.993 7.993 0 1 0-15.986 0v5.2a55.693 55.693 0 1 0 15.986 0zM58.007 10a5.993 5.993 0 1 1 11.986 0v4.94a55.081 55.081 0 0 0-11.986 0zM64 124a53.693 53.693 0 1 1 53.693-53.693A53.754 53.754 0 0 1 64 124z" fill="#e50027" opacity="1" data-original="#000000" class=""></path><path d="M64 64.48a5.827 5.827 0 1 0 5.838 5.82A5.833 5.833 0 0 0 64 64.48zm0 9.654a3.827 3.827 0 1 1 3.838-3.834A3.841 3.841 0 0 1 64 74.134z" fill="#e50027" opacity="1" data-original="#000000" class=""></path><path d="M64 25.171a45.135 45.135 0 1 0 45.135 45.135A45.186 45.186 0 0 0 64 25.171zm1 88.245v-6.711a1 1 0 1 0-2 0v6.711a43.169 43.169 0 0 1-42.109-42.109H27.6a1 1 0 0 0 0-2h-6.71A43.17 43.17 0 0 1 63 27.2v6.712a1 1 0 1 0 2 0V27.2a43.17 43.17 0 0 1 42.11 42.111h-6.71a1 1 0 0 0 0 2h6.712A43.169 43.169 0 0 1 65 113.416z" fill="#e50027" opacity="1" data-original="#000000" class=""></path><path d="m80.115 50.417-25.588 8.53a3 3 0 0 0-1.887 1.887l-8.53 25.588a2.987 2.987 0 0 0 2.825 3.93 3.014 3.014 0 0 0 .95-.155l25.588-8.53a3 3 0 0 0 1.888-1.887l8.529-25.588a2.984 2.984 0 0 0-3.775-3.775zm1.878 3.143-8.53 25.587a.986.986 0 0 1-.622.623L47.252 88.3a.983.983 0 0 1-1.244-1.244l8.529-25.589a.986.986 0 0 1 .623-.622l25.588-8.53a1.014 1.014 0 0 1 .319-.052.987.987 0 0 1 .926 1.3z" fill="#e50027" opacity="1" data-original="#000000" class=""></path></g></svg>