<svg xmlns="http://www.w3.org/2000/svg" version="1.1" xmlns:xlink="http://www.w3.org/1999/xlink" width="512" height="512" x="0" y="0" viewBox="0 0 511.999 511" style="enable-background:new 0 0 512 512" xml:space="preserve" class=""><g><path d="M381.246 178.918V8c0-4.14-3.36-7.5-7.5-7.5H322.38a7.5 7.5 0 0 0-7.5 7.5v117.363a7.5 7.5 0 1 0 15 0V15.5h36.367v218.402c0 10.028-8.156 18.184-18.183 18.184s-18.184-8.156-18.184-18.184v-78.539a7.5 7.5 0 0 0-7.5-7.5 7.497 7.497 0 0 0-7.5 7.5v23.567c-20.969 4.328-41.121 12.847-58.887 24.91-17.734-12.047-37.738-20.567-58.87-24.922V8a7.5 7.5 0 0 0-7.5-7.5h-51.368c-4.14 0-7.5 3.36-7.5 7.5v34.695c0 4.14 3.36 7.5 7.5 7.5s7.5-3.36 7.5-7.5V15.5h36.367v218.402c0 10.028-8.156 18.184-18.183 18.184s-18.184-8.156-18.184-18.184V72.695a7.5 7.5 0 1 0-15 0v106.223c-35.422 7.3-67.68 26.305-91.39 53.992C13.98 262.55 0 300.398 0 339.473c0 90.398 73.543 163.941 163.938 163.941 34.082 0 65.761-10.46 92.011-28.328 27.227 18.547 58.953 28.328 92.114 28.328 90.394 0 163.937-73.543 163.937-163.941 0-39.075-13.98-76.922-39.363-106.563-23.711-27.687-55.969-46.695-91.39-53.992zm-33.183 88.172c16.414 0 30.074-11.985 32.714-27.66 19.258 6.316 36.547 18.226 49.36 34.168 15.156 18.851 23.168 41.632 23.168 65.879 0 58.03-47.211 105.242-105.243 105.242-17.257 0-34.117-4.207-49.218-12.211 18.297-26.45 29.031-58.508 29.031-93.031a164.01 164.01 0 0 0-28.977-93.059c5.286-2.8 10.778-5.14 16.446-6.992 2.636 15.676 16.3 27.664 32.718 27.664zm-79.325-53.672a149.376 149.376 0 0 1 46.14-19.156v29.613a118.965 118.965 0 0 0-25.175 10.453c.05-.074-20.023-21.5-20.965-20.91zm-104.8 53.672c16.414 0 30.074-11.985 32.714-27.66a104.67 104.67 0 0 1 16.434 7.004c-18.973 27.406-28.965 59.39-28.965 93.039 0 33.648 9.992 65.632 28.961 93.039-14.68 7.785-31.406 12.203-49.144 12.203-58.032 0-105.243-47.211-105.243-105.242 0-24.243 8.012-47.024 23.164-65.88 12.813-15.937 30.106-27.847 49.364-34.163 2.64 15.675 16.3 27.66 32.715 27.66zm82.875 7.543C234.37 294 227.82 316.3 227.82 339.473c0 23.187 6.54 45.488 18.961 64.836a106.105 106.105 0 0 1-20.972 20.246c-17.48-25.02-26.684-54.285-26.684-85.082 0-30.801 9.203-60.067 26.691-85.082a105.942 105.942 0 0 1 14.063 12.242c.469.492 6.258 7.14 6.934 8zm22.367 64.84c0 18.488-4.797 35.87-13.2 50.984-8.632-15.535-13.16-32.95-13.16-50.984 0-18.04 4.547-35.473 13.211-51.032 8.645 15.496 13.149 32.852 13.149 51.032zm-254.18 0c0-35.5 12.7-69.883 35.758-96.809 20.867-24.367 49.015-41.34 79.996-48.402v29.617c-23.688 6.805-45.027 20.969-60.582 40.32-17.074 21.238-26.477 47.973-26.477 75.274 0 66.304 53.942 120.242 120.243 120.242 65.414 0 120.242-54.848 120.242-120.242 0-41.262-21.793-80.309-56.778-102.094-9.41-5.856-19.601-10.434-30.28-13.5v-29.617c19.964 4.55 38.745 13.222 55.167 25.328 37.766 27.847 60.59 72.95 60.59 119.887 0 82.125-66.816 148.937-148.941 148.937S15 421.598 15 339.473zm333.063 148.941c-28.38 0-55.602-7.879-79.336-22.871a165.068 165.068 0 0 0 20.98-20.918c17.797 9.89 37.832 15.094 58.356 15.094 66.3 0 120.242-53.942 120.242-120.242 0-27.305-9.403-54.04-26.477-75.278-15.55-19.351-36.894-33.512-60.582-40.32v-29.617c30.984 7.062 59.129 24.035 79.996 48.406C484.301 269.59 497 303.973 497 339.473c0 82.125-66.813 148.941-148.938 148.941zm0 0" fill="#d26313" opacity="1" data-original="#000000" class=""></path></g></svg>