<svg xmlns="http://www.w3.org/2000/svg" version="1.1" xmlns:xlink="http://www.w3.org/1999/xlink" width="512" height="512" x="0" y="0" viewBox="0 0 512 512" style="enable-background:new 0 0 512 512" xml:space="preserve" class=""><g><path d="M402.46 175.27a10.04 10.04 0 0 0-4.75-1.21c-3.68 0-7.06 2.01-8.81 5.25-2.62 4.85-.81 10.93 4.04 13.55 1.46.79 3.1 1.21 4.75 1.21 3.68 0 7.05-2.01 8.8-5.24 2.63-4.85.82-10.93-4.03-13.56z" fill="#d26313" opacity="1" data-original="#000000" class=""></path><path d="M407.65 80.43c-4.23-7.93-9.45-15.57-15.51-22.69-5.98-7.03-12.81-13.6-20.32-19.55-15.18-12.03-32.77-21.45-52.31-28.01C299.4 3.43 278.03.01 256 0c-22.03.01-43.4 3.43-63.52 10.18-19.53 6.56-37.12 15.98-52.3 28.01-7.51 5.95-14.34 12.52-20.32 19.55-6.06 7.12-11.28 14.76-15.51 22.69C95.49 97.07 91 114.76 91 133c.01 8.8 1.07 17.67 3.16 26.36 2.04 8.51 5.07 16.89 9.01 24.93 3.89 7.94 8.68 15.57 14.23 22.67 5.56 7.11 11.9 13.7 18.84 19.6 7.79 6.62 12.26 16.31 12.26 26.6v39.34c0 14.51 2.84 28.59 8.45 41.85 5.41 12.8 13.16 24.29 23.04 34.16 9.87 9.87 21.36 17.63 34.16 23.04a106.72 106.72 0 0 0 11.85 4.206V502c0 5.523 4.477 10 10 10h40c5.523 0 10-4.477 10-10V395.755a106.89 106.89 0 0 0 11.84-4.205c12.81-5.41 24.3-13.17 34.17-23.04s17.63-21.36 23.04-34.16c5.61-13.26 8.45-27.34 8.45-41.85v-39.34c0-10.29 4.47-19.99 12.26-26.6.07-.06.13-.11.19-.17 4.2-3.57 4.7-9.9 1.13-14.09a9.988 9.988 0 0 0-7.62-3.52c-2.37 0-4.67.85-6.48 2.39l-.07.06c-.03.03-.06.06-.1.09-12.27 10.42-19.31 25.67-19.31 41.84v39.34c0 23.36-9.11 45.33-25.63 61.87-16.54 16.52-38.51 25.62-61.87 25.63-23.36-.01-45.33-9.11-61.87-25.63-16.52-16.54-25.62-38.51-25.63-61.87v-39.34c0-16.17-7.04-31.42-19.31-41.84-23.95-20.33-38.22-49.61-38.19-78.32.01-29.69 14.79-57.79 41.62-79.14C180.1 32.02 216.79 20 255.94 20h.12c39.14 0 75.84 12.02 103.33 33.86 26.82 21.35 41.6 49.45 41.61 79.14 0 2.48-.1 5-.31 7.48-.22 2.67.61 5.25 2.33 7.29a9.996 9.996 0 0 0 6.81 3.51c2.78.22 5.53-.72 7.58-2.6 1.86-1.7 3-4.03 3.21-6.54.25-3.04.38-6.12.38-9.14 0-18.24-4.49-35.93-13.35-52.57zM266 492h-20v-92.462c3.307.303 6.642.462 10 .462s6.693-.159 10-.463z" fill="#d26313" opacity="1" data-original="#000000" class=""></path><path d="M256 340c37.22 0 67.5-30.28 67.5-67.5v-21.176c0-20.816 9.444-40.633 25.911-54.371C369.191 180.452 381 156.544 381 133c0-25.469-13.435-49.191-37.831-66.799C319.759 49.305 288.802 40 256 40s-63.759 9.305-87.169 26.201C144.435 83.809 131 107.531 131 133c0 23.544 11.809 47.452 31.589 63.953 16.467 13.738 25.911 33.555 25.911 54.371V272.5c0 37.22 30.28 67.5 67.5 67.5zm-47.779-95.636L241.857 278l-23.465 23.465c-6.194-8.024-9.892-18.068-9.892-28.965v-21.176c0-2.332-.097-4.653-.279-6.96zM213.143 221 256 178.143 298.857 221 256 263.857zm20.569 93.43L256 292.143l22.288 22.288C271.637 317.98 264.051 320 256 320s-15.637-2.02-22.288-5.57zm69.788-63.106V272.5c0 10.897-3.698 20.942-9.892 28.965L270.143 278l33.636-33.636a88.482 88.482 0 0 0-.279 6.96zm33.1-69.728a93.582 93.582 0 0 0-17.209 18.871l-6.39 6.39L270.143 164 313 121.143l40.3 40.3c-4.12 7.464-9.768 14.369-16.7 20.153zM256 64.143 298.857 107 256 149.857 213.143 107zm-57 28.714-13.67-13.67c12.75-8.141 27.833-13.866 44.172-16.832zm83.498-30.502c16.34 2.966 31.422 8.691 44.172 16.832L313 92.857zM361 133c0 2.439-.19 4.886-.529 7.328L327.143 107l15.279-15.279C354.49 103.84 361 118.138 361 133zM169.578 91.721 184.857 107l-33.328 33.328A53.312 53.312 0 0 1 151 133c0-14.862 6.51-29.16 18.578-41.279zM158.7 161.443l40.3-40.3L241.857 164 199 206.857l-6.39-6.39a93.585 93.585 0 0 0-17.209-18.871c-6.933-5.784-12.581-12.689-16.701-20.153z" fill="#d26313" opacity="1" data-original="#000000" class=""></path></g></svg>