<svg xmlns="http://www.w3.org/2000/svg" version="1.1" xmlns:xlink="http://www.w3.org/1999/xlink" width="512" height="512" x="0" y="0" viewBox="0 0 512 512" style="enable-background:new 0 0 512 512" xml:space="preserve" class=""><g><path d="M72.82 289.937c-1.86-1.859-4.44-2.93-7.07-2.93s-5.21 1.07-7.07 2.93-2.93 4.44-2.93 7.07 1.07 5.21 2.93 7.07c1.86 1.86 4.44 2.93 7.07 2.93s5.21-1.07 7.07-2.93 2.93-4.44 2.93-7.07-1.07-5.21-2.93-7.07zM30.667 287.008H10c-5.523 0-10 4.478-10 10s4.477 10 10 10h20.667c5.522 0 10-4.477 10-10 0-5.522-4.477-10-10-10z" fill="#d26313" opacity="1" data-original="#000000" class=""></path><path d="M502 363.303h-60.459a9.97 9.97 0 0 0-1.475.109l-40.243 6.001c-16.63 2.477-33.279-5.74-41.421-20.455l-20.024-36.191a9.981 9.981 0 0 0-1.705-2.256l-83.574-82.969c-12.038-11.951-14.589-30.094-7.311-44.654l15.283 12.647.096.081.017.013 35.213 29.14 12.751-15.408-35.132-29.072-68.04-57.14a9.999 9.999 0 0 0-15.358 3.152 69.08 69.08 0 0 0 12.846 80.126l35.145 35.146-116.38 45.436H105.25c-5.523 0-10 4.478-10 10s4.477 10 10 10h18.862a9.992 9.992 0 0 0 3.637-.685l118.383-46.218a13.14 13.14 0 0 1 16.063 5.461l37.906 62.794a13.049 13.049 0 0 1 1.414 10.332 13.042 13.042 0 0 1-6.542 8.119l-32.73 17.271a15.614 15.614 0 0 1-19.621-4.216l-14.172-18.186a9.026 9.026 0 0 1-1.827-6.914 9.032 9.032 0 0 1 3.732-6.103 9.082 9.082 0 0 1 12.477 1.847l5.958 7.694c3.381 4.367 9.662 5.167 14.029 1.785 4.367-3.382 5.166-9.662 1.785-14.029l-5.958-7.694a29.029 29.029 0 0 0-39.88-5.901c-6.533 4.646-10.771 11.573-11.931 19.506-1.161 7.932.914 15.782 5.841 22.104l3.137 4.026-18.914 9.187a32.358 32.358 0 0 1-27.053.577l-36.958-16.038a9.992 9.992 0 0 0-5.821-.655L18.685 371.36c-5.429 1.016-9.005 6.24-7.989 11.669.899 4.807 5.099 8.162 9.818 8.162.61 0 1.229-.057 1.851-.173l105.371-19.725 34.148 14.818a52.337 52.337 0 0 0 43.754-.934l22.835-11.092a35.573 35.573 0 0 0 26.477 11.814 35.574 35.574 0 0 0 16.628-4.13l32.729-17.27a33.299 33.299 0 0 0 16.478-20.453c2.139-7.694 1.394-15.949-2.004-23.118l2.789 2.769 19.333 34.941c10.719 19.373 31.303 31.209 53.047 31.209 2.927 0 5.876-.215 8.825-.654l39.509-5.892H502c5.523 0 10-4.478 10-10s-4.477-9.998-10-9.998zM221.859 196.536l-4.252-4.252a49.105 49.105 0 0 1-13.451-44.547l26.125 21.94a58.41 58.41 0 0 0-8.422 26.859z" fill="#d26313" opacity="1" data-original="#000000" class=""></path><path d="m335.28 230.985-.608-.504c-4.254-3.525-10.558-2.932-14.081 1.322-3.523 4.254-2.931 10.558 1.323 14.08l.608.504a9.956 9.956 0 0 0 6.374 2.299 9.98 9.98 0 0 0 7.707-3.621c3.522-4.254 2.931-10.558-1.323-14.08zM502 292.496h-70.473a60.987 60.987 0 0 1-38.741-13.924l-32.063-26.532c-4.255-3.521-10.559-2.927-14.08 1.329-3.52 4.254-2.925 10.558 1.33 14.079l32.071 26.539a81.041 81.041 0 0 0 51.484 18.509H502c5.523 0 10-4.478 10-10s-4.477-10-10-10z" fill="#d26313" opacity="1" data-original="#000000" class=""></path></g></svg>