<svg xmlns="http://www.w3.org/2000/svg" version="1.1" xmlns:xlink="http://www.w3.org/1999/xlink" width="512" height="512" x="0" y="0" viewBox="0 0 74 74" style="enable-background:new 0 0 512 512" xml:space="preserve" class=""><g><path d="M37 72a35 35 0 1 1 35-35 35 35 0 0 1-35 35zm0-68a33 33 0 1 0 33 33A33 33 0 0 0 37 4z" fill="#d26313" opacity="1" data-original="#000000" class=""></path><path d="m36.9 38-.57-.51C22.47 24.86 24.75 5.56 24.86 4.75l2 .25c0 .19-2.18 18.57 10.3 30.48 3.42-1.91 19.16-9.6 34.42.69l-1.12 1.66c-16-10.82-32.73-.38-32.9-.27zM26.77 52C20 48.12 14.61 40.86 11.3 31.05a61.59 61.59 0 0 1-3-13.72l2-.15c0 .24 2 24.21 17.45 33.13z" fill="#d26313" opacity="1" data-original="#000000" class=""></path><path d="M66 21a40.26 40.26 0 0 0-39-2.9l-1-1.72a42.24 42.24 0 0 1 41.06 3zM12.72 55.63a36.15 36.15 0 0 1-5.14-.37l.27-2c22.81 3.2 28-16 28.18-16.81L38 37c-.08.16-5 18.63-25.28 18.63zM29.22 71l-.55-1.92c29.41-8.46 30.25-36.42 30.25-36.7h2c0 .33-.92 29.76-31.7 38.62z" fill="#d26313" opacity="1" data-original="#000000" class=""></path></g></svg>