<svg xmlns="http://www.w3.org/2000/svg" version="1.1" xmlns:xlink="http://www.w3.org/1999/xlink" width="512" height="512" x="0" y="0" viewBox="0 0 500 500" style="enable-background:new 0 0 512 512" xml:space="preserve" class=""><g><path fill-rule="evenodd" d="M231.885 364.315a848.873 848.873 0 0 0-5.274 8.939c-2.239 3.873-3.328 7.927-3.328 12.399v39.051c0 5.298-4.316 9.617-9.618 9.617h-1.714c-5.303 0-9.614-4.319-9.614-9.617v-39.385c0-5.264.786-9.611 2.635-14.536l17.878-47.673c1.64-4.382-1.602-9.075-6.281-9.075h-1.612c-11.696 0-21.211-9.51-21.211-21.207 0-11.692 9.515-21.213 21.211-21.213h25.491c9.892 8.509 15.391 17.617 16.794 27.783 2.49 18.092-13.605 45.157-25.357 64.917zm-27.271-158.172-25.334 21.722-9.425-16.04 25.204-31.503c3.045-3.811 6.882-5.902 11.732-6.423l56.018-5.891a6.676 6.676 0 0 0 3.326-1.312c27.686-20.778 36.377-46.186 41.076-73.551l15.714 2.476c-5.252 32.527-13.702 61.067-41.019 84.774-2.828 2.467-3.097 6.788-.576 9.572 11.667 12.891 11.635 24.73-.111 38.373a6.724 6.724 0 0 0-1.623 4.382v25.471H219.99v-21.174c0-.662-.097-1.317-.289-1.951-2.239-7.373-3.551-15.282-4.015-24.17-.295-5.569-6.857-8.364-11.072-4.755zm-77.963 39.594c-6.662 2.019-12.567-5.14-9.327-11.359 1.041-1.996 2.527-3.228 4.68-3.89l36.629-11.274 8.439 14.361zM313.484 48.649c1.128-7.053 10.227-8.901 14.291-3.443 1.345 1.809 1.811 3.686 1.471 5.914L324.9 82.351l-15.683-2.476c1.426-10.464 2.566-20.556 4.267-31.226zm-42.949 248.928c2.456 17.821-7.315 38.983-18.141 58.224l12.005 92.333c.802 6.163 6.473 10.556 12.646 9.781 5.95-.741 10.215-5.79 9.957-11.737l-7.591-174.563h-20.367c6.351 7.994 10.214 16.684 11.491 25.962zm-61.666-172.149c0 12.885 10.48 23.362 23.36 23.362 12.882 0 23.36-10.477 23.36-23.362 0-12.88-10.477-23.362-23.36-23.362-12.879 0-23.36 10.483-23.36 23.362zM386.286 458h-88.547c1.889-3.703 2.863-7.932 2.668-12.405l-7.394-170.074v-40.385c13.075-16.362 13.902-33.154 2.487-48.98 38.897-37.249 39.607-84.768 47.009-133.007.885-5.761-.486-11.279-3.967-15.961-3.658-4.918-8.326-7.453-14.303-8.407-11.418-1.594-22.189 6.372-24.007 17.759-1.186 7.435-2.125 14.706-3.03 21.745-4.384 34.087-8.183 63.595-37.676 86.577l-6.166.645c9.454-6.666 15.65-17.652 15.65-30.079 0-20.28-16.5-36.778-36.781-36.778-20.279 0-36.779 16.498-36.779 36.778 0 15.158 9.216 28.202 22.34 33.827l-12.408 1.306c-8.479.893-15.479 4.715-20.804 11.381l-26.799 33.494-39.723 12.223c-11.406 3.514-17.671 15.43-13.974 27.06 3.534 10.98 15.394 17.193 26.439 13.88l45.46-13.688c4.243-1.283 7.785-3.223 11.151-6.106l16.48-14.123a104.774 104.774 0 0 0 2.955 13.309v21.242c-15.056 3.76-26.244 17.391-26.244 33.595 0 16.43 11.507 30.237 26.889 33.759l-14.806 39.481c-2.414 6.434-3.492 12.376-3.492 19.251v39.385c0 12.704 10.334 23.039 23.036 23.039h1.714c12.704 0 23.037-10.335 23.037-23.039v-39.051c0-2.132.455-3.828 1.524-5.671a494.64 494.64 0 0 1 3.094-5.269l9.773 75.151a24.46 24.46 0 0 0 2.551 8.136H94.18a6.712 6.712 0 0 0-6.709 6.711 6.705 6.705 0 0 0 6.709 6.711h292.106a6.705 6.705 0 0 0 6.709-6.711 6.711 6.711 0 0 0-6.709-6.711zM84.472 159.391c0-8.339 6.787-15.13 15.127-15.13 8.342 0 15.126 6.79 15.126 15.13 0 8.334-6.785 15.119-15.126 15.119-8.34 0-15.127-6.785-15.127-15.119zm43.671-79.058c13.084 5.22 14.809 15.702 26.397 24.911-6.123-.687-11.254-4.383-15.608-9.561-2.753-3.273-6.518-4.975-10.789-4.975zm0 79.058V104.13l.519.186c12.823 15.439 29.588 18.404 47.429 9.431 5.343-2.688 4.738-10.569-.981-12.393-4.801-1.526-9.227-4.02-13.158-7.401-7.739-6.644-10.885-15.693-21.867-22.559-5.199-3.251-11.126-5.417-17.618-6.423-4.082-.638-7.743 2.52-7.743 6.626v63.6c-18.845-11.824-43.672 1.722-43.672 24.193 0 15.735 12.805 28.535 28.545 28.535 15.741.001 28.546-12.799 28.546-28.534zm269.694 41.019c-3.543-1.577-6.982-4.325-10.221-8.176-2.809-3.338-6.595-5.004-10.944-5.004v-10.72c13.439 5.369 14.841 15.671 27.077 25.465a19.235 19.235 0 0 1-5.912-1.565zm-49.977 71.651c-8.487 0-15.393-6.909-15.393-15.39 0-8.492 6.906-15.396 15.393-15.396s15.394 6.903 15.394 15.396c0 8.481-6.907 15.39-15.394 15.39zm81.067-68.191a6.716 6.716 0 0 0-4.653-5.869c-4.87-1.543-9.362-4.076-13.346-7.502-7.837-6.735-11.055-15.914-22.127-22.836-5.254-3.279-11.244-5.462-17.806-6.491-4.048-.631-7.741 2.506-7.741 6.638v64.522c-19.029-12.069-44.206 1.607-44.206 24.34 0 15.893 12.924 28.807 28.812 28.807 15.889 0 28.812-12.914 28.812-28.807v-56.024l.672.221c13.059 15.576 29.768 18.657 47.91 9.527a6.717 6.717 0 0 0 3.673-6.526z" clip-rule="evenodd" fill="#d26313" opacity="1" data-original="#000000"></path></g></svg>